HIERARCHY
ROOT Hips
{
	OFFSET -412.092468 -576.953125 89.101967
	CHANNELS 6 Xposition Yposition Zposition Zrotation Yrotation Xrotation
	JOINT Spine
	{
		OFFSET 0.000000 2.080078 8.814247
		CHANNELS 6 Xposition Yposition Zposition Zrotation Yrotation Xrotation
		JOINT Spine1
		{
			OFFSET 0.000000 0.000000 8.844139
			CHANNELS 6 Xposition Yposition Zposition Zrotation Yrotation Xrotation
			JOINT Spine2
			{
				OFFSET 0.000000 0.000000 11.682266
				CHANNELS 6 Xposition Yposition Zposition Zrotation Yrotation Xrotation
				JOINT Spine3
				{
					OFFSET 0.000000 0.000000 11.746696
					CHANNELS 6 Xposition Yposition Zposition Zrotation Yrotation Xrotation
					JOINT Neck
					{
						OFFSET 0.000000 0.000000 17.658264
						CHANNELS 6 Xposition Yposition Zposition Zrotation Yrotation Xrotation
						JOINT Neck1
						{
							OFFSET 0.000000 0.000000 5.101517
							CHANNELS 6 Xposition Yposition Zposition Zrotation Yrotation Xrotation
							JOINT Head
							{
								OFFSET 0.000000 0.000000 5.101517
								CHANNELS 6 Xposition Yposition Zposition Zrotation Yrotation Xrotation
								JOINT HeadEnd
								{
									OFFSET 0.000000 0.000000 11.655090
									CHANNELS 6 Xposition Yposition Zposition Zrotation Yrotation Xrotation
									End Site
									{
										OFFSET 0.000000 0.000000 0.100006
									}
								}
							}
						}
					}
					JOINT RightShoulder
					{
						OFFSET -2.625397 0.000000 11.175217
						CHANNELS 6 Xposition Yposition Zposition Zrotation Yrotation Xrotation
						JOINT RightArm
						{
							OFFSET 0.000000 0.000000 10.434708
							CHANNELS 6 Xposition Yposition Zposition Zrotation Yrotation Xrotation
							JOINT RightForeArm
							{
								OFFSET 0.000000 0.000000 29.628418
								CHANNELS 6 Xposition Yposition Zposition Zrotation Yrotation Xrotation
								JOINT RightHand
								{
									OFFSET 0.000000 0.000000 22.857605
									CHANNELS 6 Xposition Yposition Zposition Zrotation Yrotation Xrotation
									JOINT RightHandThumb1
									{
										OFFSET -2.867310 -2.944275 3.959564
										CHANNELS 6 Xposition Yposition Zposition Zrotation Yrotation Xrotation
										JOINT RightHandThumb2
										{
											OFFSET 0.000000 0.000000 3.350403
											CHANNELS 6 Xposition Yposition Zposition Zrotation Yrotation Xrotation
											JOINT RightHandThumb3
											{
												OFFSET 0.000000 0.000000 3.756516
												CHANNELS 6 Xposition Yposition Zposition Zrotation Yrotation Xrotation
												JOINT RightHandThumb4
												{
													OFFSET 0.000000 0.000000 3.147339
													CHANNELS 6 Xposition Yposition Zposition Zrotation Yrotation Xrotation
													End Site
													{
														OFFSET 0.000000 0.000000 0.100006
													}
												}
											}
										}
									}
									JOINT RightHandIndex1
									{
										OFFSET -0.086761 -2.345276 10.030899
										CHANNELS 6 Xposition Yposition Zposition Zrotation Yrotation Xrotation
										JOINT RightHandIndex2
										{
											OFFSET 0.000000 0.000000 4.061096
											CHANNELS 6 Xposition Yposition Zposition Zrotation Yrotation Xrotation
											JOINT RightHandIndex3
											{
												OFFSET 0.000000 0.000000 3.248871
												CHANNELS 6 Xposition Yposition Zposition Zrotation Yrotation Xrotation
												JOINT RightHandIndex4
												{
													OFFSET 0.000000 0.000000 2.639709
													CHANNELS 6 Xposition Yposition Zposition Zrotation Yrotation Xrotation
													End Site
													{
														OFFSET 0.000000 0.000000 0.100006
													}
												}
											}
										}
									}
									JOINT RightHandMiddle1
									{
										OFFSET 0.104095 -0.006775 9.502945
										CHANNELS 6 Xposition Yposition Zposition Zrotation Yrotation Xrotation
										JOINT RightHandMiddle2
										{
											OFFSET 0.000000 0.000000 4.568726
											CHANNELS 6 Xposition Yposition Zposition Zrotation Yrotation Xrotation
											JOINT RightHandMiddle3
											{
												OFFSET 0.000000 0.000000 3.654984
												CHANNELS 6 Xposition Yposition Zposition Zrotation Yrotation Xrotation
												JOINT RightHandMiddle4
												{
													OFFSET 0.000000 0.000000 2.741241
													CHANNELS 6 Xposition Yposition Zposition Zrotation Yrotation Xrotation
													End Site
													{
														OFFSET 0.000000 0.000000 0.100006
													}
												}
											}
										}
									}
									JOINT RightHandRing1
									{
										OFFSET 0.086761 2.267456 8.921707
										CHANNELS 6 Xposition Yposition Zposition Zrotation Yrotation Xrotation
										JOINT RightHandRing2
										{
											OFFSET 0.000000 0.000000 4.061096
											CHANNELS 6 Xposition Yposition Zposition Zrotation Yrotation Xrotation
											JOINT RightHandRing3
											{
												OFFSET 0.000000 0.000000 3.654984
												CHANNELS 6 Xposition Yposition Zposition Zrotation Yrotation Xrotation
												JOINT RightHandRing4
												{
													OFFSET 0.000000 0.000000 2.741241
													CHANNELS 6 Xposition Yposition Zposition Zrotation Yrotation Xrotation
													End Site
													{
														OFFSET 0.000000 0.000000 0.100006
													}
												}
											}
										}
									}
									JOINT RightHandPinky1
									{
										OFFSET -0.173492 4.467224 7.976990
										CHANNELS 6 Xposition Yposition Zposition Zrotation Yrotation Xrotation
										JOINT RightHandPinky2
										{
											OFFSET 0.000000 0.000000 3.350403
											CHANNELS 6 Xposition Yposition Zposition Zrotation Yrotation Xrotation
											JOINT RightHandPinky3
											{
												OFFSET 0.000000 0.000000 2.842758
												CHANNELS 6 Xposition Yposition Zposition Zrotation Yrotation Xrotation
												JOINT RightHandPinky4
												{
													OFFSET 0.000000 0.000000 2.639709
													CHANNELS 6 Xposition Yposition Zposition Zrotation Yrotation Xrotation
													End Site
													{
														OFFSET 0.000000 0.000000 0.100006
													}
												}
											}
										}
									}
									JOINT RightForeArmEnd
									{
										OFFSET 0.000000 0.000000 0.000000
										CHANNELS 6 Xposition Yposition Zposition Zrotation Yrotation Xrotation
										End Site
										{
											OFFSET 0.000000 0.000000 0.100006
										}
									}
								}
								JOINT RightArmEnd
								{
									OFFSET 0.000000 0.000000 0.000000
									CHANNELS 6 Xposition Yposition Zposition Zrotation Yrotation Xrotation
									End Site
									{
										OFFSET 0.000000 0.000000 0.100006
									}
								}
							}
						}
					}
					JOINT LeftShoulder
					{
						OFFSET 2.625397 0.000000 11.175217
						CHANNELS 6 Xposition Yposition Zposition Zrotation Yrotation Xrotation
						JOINT LeftArm
						{
							OFFSET 0.000000 0.000000 10.813629
							CHANNELS 6 Xposition Yposition Zposition Zrotation Yrotation Xrotation
							JOINT LeftForeArm
							{
								OFFSET 0.000000 0.000000 28.724777
								CHANNELS 6 Xposition Yposition Zposition Zrotation Yrotation Xrotation
								JOINT LeftHand
								{
									OFFSET 0.644379 0.328857 25.716171
									CHANNELS 6 Xposition Yposition Zposition Zrotation Yrotation Xrotation
									JOINT LeftHandThumb1
									{
										OFFSET 2.867310 -2.944275 3.959564
										CHANNELS 6 Xposition Yposition Zposition Zrotation Yrotation Xrotation
										JOINT LeftHandThumb2
										{
											OFFSET 0.000000 0.000000 3.350403
											CHANNELS 6 Xposition Yposition Zposition Zrotation Yrotation Xrotation
											JOINT LeftHandThumb3
											{
												OFFSET 0.000000 0.000000 3.756516
												CHANNELS 6 Xposition Yposition Zposition Zrotation Yrotation Xrotation
												JOINT LeftHandThumb4
												{
													OFFSET 0.000000 0.000000 3.100006
													CHANNELS 6 Xposition Yposition Zposition Zrotation Yrotation Xrotation
													End Site
													{
														OFFSET 0.000000 0.000000 0.100006
													}
												}
											}
										}
									}
									JOINT LeftHandIndex1
									{
										OFFSET 0.086761 -2.345276 10.030899
										CHANNELS 6 Xposition Yposition Zposition Zrotation Yrotation Xrotation
										JOINT LeftHandIndex2
										{
											OFFSET 0.000000 0.000000 4.061096
											CHANNELS 6 Xposition Yposition Zposition Zrotation Yrotation Xrotation
											JOINT LeftHandIndex3
											{
												OFFSET 0.000000 0.000000 3.248871
												CHANNELS 6 Xposition Yposition Zposition Zrotation Yrotation Xrotation
												JOINT LeftHandIndex4
												{
													OFFSET 0.000000 0.000000 2.639709
													CHANNELS 6 Xposition Yposition Zposition Zrotation Yrotation Xrotation
													End Site
													{
														OFFSET 0.000000 0.000000 0.100006
													}
												}
											}
										}
									}
									JOINT LeftHandMiddle1
									{
										OFFSET -0.104095 -0.006775 9.502945
										CHANNELS 6 Xposition Yposition Zposition Zrotation Yrotation Xrotation
										JOINT LeftHandMiddle2
										{
											OFFSET 0.000000 0.000000 4.568726
											CHANNELS 6 Xposition Yposition Zposition Zrotation Yrotation Xrotation
											JOINT LeftHandMiddle3
											{
												OFFSET 0.000000 0.000000 3.654984
												CHANNELS 6 Xposition Yposition Zposition Zrotation Yrotation Xrotation
												JOINT LeftHandMiddle4
												{
													OFFSET 0.000000 0.000000 2.741241
													CHANNELS 6 Xposition Yposition Zposition Zrotation Yrotation Xrotation
													End Site
													{
														OFFSET 0.000000 0.000000 0.100006
													}
												}
											}
										}
									}
									JOINT LeftHandRing1
									{
										OFFSET -0.086761 2.267456 8.921707
										CHANNELS 6 Xposition Yposition Zposition Zrotation Yrotation Xrotation
										JOINT LeftHandRing2
										{
											OFFSET 0.000000 0.000000 4.061096
											CHANNELS 6 Xposition Yposition Zposition Zrotation Yrotation Xrotation
											JOINT LeftHandRing3
											{
												OFFSET 0.000000 0.000000 3.654984
												CHANNELS 6 Xposition Yposition Zposition Zrotation Yrotation Xrotation
												JOINT LeftHandRing4
												{
													OFFSET 0.000000 0.000000 2.741241
													CHANNELS 6 Xposition Yposition Zposition Zrotation Yrotation Xrotation
													End Site
													{
														OFFSET 0.000000 0.000000 0.100006
													}
												}
											}
										}
									}
									JOINT LeftHandPinky1
									{
										OFFSET 0.173492 4.467224 7.976990
										CHANNELS 6 Xposition Yposition Zposition Zrotation Yrotation Xrotation
										JOINT LeftHandPinky2
										{
											OFFSET 0.000000 0.000000 3.350403
											CHANNELS 6 Xposition Yposition Zposition Zrotation Yrotation Xrotation
											JOINT LeftHandPinky3
											{
												OFFSET 0.000000 0.000000 2.842758
												CHANNELS 6 Xposition Yposition Zposition Zrotation Yrotation Xrotation
												JOINT LeftHandPinky4
												{
													OFFSET 0.000000 0.000000 2.639709
													CHANNELS 6 Xposition Yposition Zposition Zrotation Yrotation Xrotation
													End Site
													{
														OFFSET 0.000000 0.000000 0.100006
													}
												}
											}
										}
									}
									JOINT LeftForeArmEnd
									{
										OFFSET 0.000000 0.000000 0.000000
										CHANNELS 6 Xposition Yposition Zposition Zrotation Yrotation Xrotation
										End Site
										{
											OFFSET 0.000000 0.000000 0.100006
										}
									}
								}
								JOINT LeftArmEnd
								{
									OFFSET 0.000000 0.000000 0.000000
									CHANNELS 6 Xposition Yposition Zposition Zrotation Yrotation Xrotation
									End Site
									{
										OFFSET 0.000000 0.000000 0.100006
									}
								}
							}
						}
					}
				}
			}
		}
	}
	JOINT RightUpLeg
	{
		OFFSET -11.289948 0.000000 0.000000
		CHANNELS 6 Xposition Yposition Zposition Zrotation Yrotation Xrotation
		JOINT RightLeg
		{
			OFFSET 0.000000 0.000000 -38.200329
			CHANNELS 6 Xposition Yposition Zposition Zrotation Yrotation Xrotation
			JOINT RightFoot
			{
				OFFSET 0.000000 0.000000 -39.900856
				CHANNELS 6 Xposition Yposition Zposition Zrotation Yrotation Xrotation
				JOINT RightToeBase
				{
					OFFSET 0.000000 -15.261658 0.000001
					CHANNELS 6 Xposition Yposition Zposition Zrotation Yrotation Xrotation
					JOINT RightToeBaseEnd
					{
						OFFSET 0.000000 -7.370728 0.000000
						CHANNELS 6 Xposition Yposition Zposition Zrotation Yrotation Xrotation
						End Site
						{
							OFFSET 0.000000 0.000000 0.100000
						}
					}
				}
				JOINT RightLegEnd
				{
					OFFSET 0.000000 0.000000 0.000000
					CHANNELS 6 Xposition Yposition Zposition Zrotation Yrotation Xrotation
					End Site
					{
						OFFSET 0.000000 0.000000 0.100000
					}
				}
			}
			JOINT RightUpLegEnd
			{
				OFFSET 0.000000 0.000000 0.000000
				CHANNELS 6 Xposition Yposition Zposition Zrotation Yrotation Xrotation
				End Site
				{
					OFFSET 0.000000 0.000000 0.099998
				}
			}
		}
	}
	JOINT LeftUpLeg
	{
		OFFSET 11.315674 0.000000 0.000000
		CHANNELS 6 Xposition Yposition Zposition Zrotation Yrotation Xrotation
		JOINT LeftLeg
		{
			OFFSET 0.000000 0.000000 -38.200329
			CHANNELS 6 Xposition Yposition Zposition Zrotation Yrotation Xrotation
			JOINT LeftFoot
			{
				OFFSET 0.000000 0.000000 -39.900856
				CHANNELS 6 Xposition Yposition Zposition Zrotation Yrotation Xrotation
				JOINT LeftToeBase
				{
					OFFSET 0.000000 -15.261658 0.000001
					CHANNELS 6 Xposition Yposition Zposition Zrotation Yrotation Xrotation
					JOINT LeftToeBaseEnd
					{
						OFFSET 0.000000 -7.539978 0.000000
						CHANNELS 6 Xposition Yposition Zposition Zrotation Yrotation Xrotation
						End Site
						{
							OFFSET 0.000000 0.000000 0.100000
						}
					}
				}
				JOINT LeftLegEnd
				{
					OFFSET 0.000000 0.000000 0.000000
					CHANNELS 6 Xposition Yposition Zposition Zrotation Yrotation Xrotation
					End Site
					{
						OFFSET 0.000000 0.000000 0.100000
					}
				}
			}
			JOINT LeftUpLegEnd
			{
				OFFSET 0.000000 0.000000 0.000000
				CHANNELS 6 Xposition Yposition Zposition Zrotation Yrotation Xrotation
				End Site
				{
					OFFSET 0.000000 0.000000 0.099998
				}
			}
		}
	}
}
MOTION
Frames: 2
Frame Time: 0.016667
7.199890 -34.794434 87.343361 -9.204318 3.435237 -21.097753 0.000009 2.080095 8.814241 -1.091406 -2.848425 10.948128 -0.000005 0.000018 8.844138 -0.102260 0.592757 2.842344 0.000011 0.000021 11.682249 -1.858200 0.399964 14.890470 0.000005 0.000003 11.746689 -0.748117 0.068227 6.710613 0.000013 -0.000011 17.658258 4.860478 -4.357924 9.522443 0.000008 0.000025 5.101497 7.154241 -1.613540 -2.408519 -0.000010 -0.000013 5.101500 -0.749376 1.643603 -22.136303 0.000004 0.000000 11.655089 -0.000000 -0.000000 0.000000 -2.625387 -0.000008 11.175208 13.389936 -93.998143 0.364109 -0.000008 -0.000004 10.434677 -50.425132 -37.212578 53.785530 -0.000017 0.000008 29.628387 11.750688 0.126003 30.085194 -0.000072 -0.000034 22.857586 10.516248 -13.982534 -4.920757 -2.867302 -2.944305 3.959587 31.542104 -18.150131 50.178716 0.000008 0.000008 3.350395 -14.636445 9.151762 -26.138101 0.000008 -0.000004 3.756508 -9.712263 7.081462 -17.867901 0.000002 0.000000 3.147344 0.000000 -0.000000 -0.000001 -0.086777 -2.345274 10.030914 -12.822444 -19.631914 10.190947 -0.000003 -0.000013 4.061075 0.226408 -14.726258 2.116939 -0.000013 -0.000071 3.248871 -0.273584 -14.726395 2.116945 0.000024 0.000015 2.639687 -0.000003 -0.000001 0.000002 0.104111 -0.006768 9.502972 -7.052943 -18.187414 5.406198 -0.000011 0.000014 4.568686 0.419189 -13.126096 0.700271 0.000014 -0.000002 3.655001 -0.080558 -13.126144 0.700225 -0.000015 -0.000025 2.741266 0.000003 0.000001 -0.000002 0.086773 2.267438 8.921717 1.689135 -16.689262 0.983584 -0.000002 -0.000000 4.061088 -0.924951 -11.753256 -0.729135 0.000007 0.000025 3.654979 0.075050 -11.753249 -0.729135 -0.000008 0.000002 2.741234 -0.000000 0.000000 0.000001 -0.173489 4.467232 7.977016 10.878721 -13.185250 -4.150283 -0.000010 0.000020 3.350399 -1.841367 -9.612385 -1.886525 0.000013 0.000000 2.842760 0.158633 -9.612381 -1.886532 -0.000006 -0.000003 2.639691 0.000001 -0.000000 -0.000000 0.000013 0.000041 0.000034 0.000002 -0.000001 -0.000001 -0.000022 -0.000067 0.000011 0.000000 0.000000 0.000000 2.625383 -0.000009 11.175218 -9.962540 92.375604 -0.403627 0.000000 0.000015 10.813622 40.584721 58.433156 36.440992 0.000031 0.000015 28.724808 -11.023918 1.210985 39.658759 0.644295 0.328823 25.716209 -38.428420 7.451260 -10.734240 2.867313 -2.944305 3.959564 -31.555474 17.972591 50.443734 0.000000 -0.000015 3.350418 14.241487 -9.016053 -25.485972 0.000000 0.000015 3.756523 9.455594 -6.949677 -17.426963 -0.000010 -0.000012 3.100008 0.000001 -0.000001 -0.000002 0.086769 -2.345291 10.030902 -5.341391 20.561074 0.875163 -0.000008 0.000004 4.061092 0.245308 14.222345 -2.041339 -0.000000 0.000008 3.248886 -0.254688 14.222330 -2.041340 0.000001 0.000005 2.639709 -0.000001 -0.000003 -0.000001 -0.104086 -0.006803 9.502933 -0.407744 18.060593 1.678363 -0.000001 0.000013 4.568757 0.424346 12.728865 -0.678305 -0.000007 0.000007 3.654996 -0.075657 12.728871 -0.678304 -0.000005 -0.000003 2.741235 0.000000 -0.000003 -0.000001 -0.086777 2.267478 8.921719 7.598664 15.904872 3.482414 -0.000035 -0.000005 4.061128 -0.928871 11.446630 0.709603 -0.000012 -0.000004 3.655001 0.071108 11.446827 0.709572 0.000014 -0.000004 2.741254 0.000000 0.000001 0.000001 0.173492 4.467186 7.977001 15.715821 12.665042 4.294410 -0.000019 0.000028 3.350420 -1.852189 9.283398 1.820486 0.000010 -0.000019 2.842789 0.147788 9.281404 1.820322 -0.000015 0.000025 2.639732 -0.000003 0.000001 0.000000 -0.000004 0.000003 -0.000001 -0.000000 0.000001 -0.000001 0.000003 0.000009 0.000024 -0.000002 0.000001 -0.000002 -11.289943 0.000011 0.000008 -4.134643 4.408466 21.459761 0.000018 0.000043 -38.200317 -1.607253 0.211207 7.484551 0.000005 0.000022 -39.900841 -7.242325 -4.808416 19.248865 0.000048 -15.261604 0.000001 2.119517 1.310079 -16.392317 0.000002 -7.370734 -0.000001 0.000001 0.000001 0.000001 0.000030 0.000070 -0.000003 -0.000001 0.000001 0.000002 0.000025 0.000079 0.000004 -0.000002 -0.000001 0.000001 11.315630 0.000064 0.000038 -0.775904 -10.110501 20.474440 -0.000012 0.000030 -38.200344 1.081059 -0.366629 18.731761 -0.000048 -0.000008 -39.900848 22.471659 9.870866 11.697622 -0.000043 -15.261686 0.000010 -1.507745 -1.920681 -17.114982 -0.000012 -7.539940 0.000002 0.000003 0.000000 -0.000000 -0.000002 0.000054 0.000004 0.000001 0.000000 -0.000003 0.000002 0.000059 -0.000004 0.000001 0.000001 0.000001 
6.727142 -34.805115 87.300232 -8.907312 3.681457 -21.344838 0.000002 2.080080 8.814247 -1.188344 -3.004658 11.002595 0.000010 -0.000030 8.844133 -0.108754 0.576634 2.837748 -0.000014 -0.000019 11.682264 -2.008836 0.243495 14.954797 -0.000003 0.000008 11.746686 -0.780119 -0.022984 6.852486 0.000003 0.000008 17.658236 4.822570 -4.249573 10.152259 -0.000008 0.000006 5.101501 7.087196 -1.585551 -2.158702 -0.000008 -0.000009 5.101492 -0.761728 1.643130 -22.392594 -0.000001 -0.000061 11.655105 0.000000 -0.000000 0.000000 -2.625393 -0.000021 11.175200 13.222639 -94.053679 0.352201 0.000015 -0.000008 10.434662 -50.083578 -36.929849 53.316293 0.000000 0.000023 29.628418 12.040788 0.109809 30.527848 -0.000008 0.000032 22.857609 10.219469 -14.111987 -4.945897 -2.867313 -2.944275 3.959595 31.542100 -18.150186 50.178709 0.000004 -0.000008 3.350426 -14.636470 9.151762 -26.138133 -0.000008 0.000015 3.756496 -9.712246 7.081464 -17.867889 -0.000006 -0.000010 3.147341 0.000001 -0.000000 0.000001 -0.086739 -2.345293 10.030891 -12.923543 -20.014891 10.314108 -0.000001 -0.000014 4.061089 0.215623 -15.004829 2.158990 0.000017 -0.000015 3.248878 -0.284292 -15.006086 2.158846 -0.000002 0.000003 2.639725 -0.000001 0.000002 -0.000002 0.104099 -0.006765 9.502960 -7.149012 -18.621940 5.582649 0.000008 -0.000006 4.568722 0.415824 -13.441955 0.717612 -0.000001 -0.000011 3.654988 -0.084043 -13.442195 0.717576 0.000015 -0.000006 2.741238 0.000001 0.000003 -0.000003 0.086754 2.267478 8.921722 1.589727 -17.301076 1.238764 0.000017 0.000002 4.061092 -0.919401 -12.172214 -0.755909 0.000016 0.000000 3.654973 0.080251 -12.172226 -0.755838 0.000006 -0.000008 2.741234 0.000003 0.000001 -0.000001 -0.173508 4.467257 7.976986 10.792562 -13.993383 -3.834509 -0.000008 0.000009 3.350409 -1.824231 -10.111462 -1.986559 -0.000012 -0.000029 2.842768 0.175769 -10.111709 -1.986571 -0.000028 0.000008 2.639702 -0.000001 0.000001 -0.000000 0.000014 0.000046 0.000009 0.000002 0.000000 0.000001 0.000004 -0.000044 0.000007 -0.000002 0.000000 -0.000001 2.625383 0.000026 11.175197 -9.858859 92.299235 -0.407536 0.000000 0.000004 10.813614 40.413321 58.512188 36.572238 0.000023 0.000008 28.724777 -11.590320 1.174214 40.159033 0.644337 0.328814 25.716198 -38.800478 8.103628 -10.636195 2.867359 -2.944260 3.959579 -31.542090 18.150155 50.178722 0.000015 0.000000 3.350418 14.636447 -9.151783 -26.138072 0.000008 0.000023 3.756504 9.712261 -7.081438 -17.867935 0.000005 -0.000003 3.100022 0.000000 -0.000001 -0.000002 0.086769 -2.345280 10.030905 -5.225411 21.295381 0.188356 0.000002 0.000027 4.061134 0.223397 14.804915 -2.128769 -0.000001 0.000030 3.248867 -0.276598 14.804935 -2.128764 -0.000002 0.000002 2.639724 -0.000000 -0.000001 0.000001 -0.104100 -0.006797 9.502944 -0.244302 18.979738 1.324622 0.000019 0.000008 4.568751 0.416007 13.396459 -0.715179 0.000008 -0.000024 3.655028 -0.083988 13.396267 -0.715171 0.000011 -0.000003 2.741258 0.000001 -0.000001 -0.000001 -0.086769 2.267427 8.921707 7.879322 17.197300 3.536235 -0.000010 -0.000016 4.061111 -0.916771 12.364621 0.768254 -0.000016 -0.000028 3.655011 0.083342 12.364506 0.768628 -0.000026 0.000011 2.741246 -0.000001 -0.000001 0.000000 0.173504 4.467183 7.977005 16.095763 14.177733 4.731922 -0.000010 -0.000022 3.350399 -1.814718 10.377784 2.039999 -0.000001 -0.000015 2.842806 0.185270 10.377549 2.040002 0.000015 0.000003 2.639724 -0.000000 -0.000002 -0.000001 0.000002 0.000002 -0.000005 -0.000000 -0.000000 0.000000 0.000045 -0.000022 0.000013 0.000001 0.000002 -0.000002 -11.289914 0.000011 0.000002 -4.558409 3.993483 21.935805 0.000004 0.000029 -38.200336 -1.549203 0.201064 7.393000 0.000048 0.000023 -39.900841 -7.311279 -4.521807 18.970540 0.000038 -15.261662 -0.000018 2.085911 1.261593 -16.299020 0.000044 -7.370743 -0.000001 0.000002 0.000000 0.000001 0.000030 0.000077 -0.000000 -0.000002 -0.000001 0.000001 0.000054 0.000067 -0.000009 -0.000001 0.000001 0.000001 11.315691 -0.000043 0.000031 -1.044234 -10.709361 20.546327 -0.000009 0.000030 -38.200348 1.103055 -0.381516 19.076850 -0.000053 0.000015 -39.900856 22.072241 10.149599 11.641048 -0.000047 -15.261682 0.000010 -1.508409 -1.952747 -17.060318 0.000006 -7.539994 0.000002 0.000002 0.000000 -0.000000 0.000013 0.000108 -0.000001 0.000002 0.000001 -0.000001 0.000002 0.000000 -0.000001 0.000000 -0.000000 -0.000001 
